<svg width="23" height="23" viewBox="0 0 23 23" fill="none" xmlns="http://www.w3.org/2000/svg">
<path d="M7.92256 22.3055H3.23506C1.94112 22.3055 0.891312 21.2557 0.891312 19.9617V2.77425C0.891312 1.4803 1.94112 0.430496 3.23506 0.430496H7.92256C9.21651 0.430496 10.2663 1.4803 10.2663 2.77425V19.9617C10.2663 21.2557 9.21651 22.3055 7.92256 22.3055ZM22.7663 19.9617V2.77425C22.7663 1.4803 21.7165 0.430496 20.4226 0.430496H15.7351C14.4411 0.430496 13.3913 1.4803 13.3913 2.77425V19.9617C13.3913 21.2557 14.4411 22.3055 15.7351 22.3055H20.4226C21.7165 22.3055 22.7663 21.2557 22.7663 19.9617Z" fill="black"/>
</svg>
