<svg width="20" height="20" viewBox="0 0 20 20" fill="none" xmlns="http://www.w3.org/2000/svg">
<path d="M2.34 0.929993L0.93 2.33999L5.29 6.69999L5 6.99999H1V13H5L10 18V11.41L14.18 15.59C13.53 16.08 12.8 16.47 12 16.7V18.76C13.3204 18.4577 14.5548 17.8593 15.61 17.01L17.66 19.06L19.07 17.65L2.34 0.929993ZM17 9.99999C17 10.82 16.85 11.61 16.59 12.34L18.12 13.87C18.68 12.7 19 11.39 19 9.99999C19 5.71999 16.01 2.13999 12 1.22999V3.28999C14.89 4.14999 17 6.82999 17 9.99999ZM10 1.99999L8.12 3.87999L10 5.75999V1.99999ZM14.5 9.99999C14.4998 9.16212 14.2657 8.34094 13.824 7.62893C13.3823 6.91693 12.7506 6.34238 12 5.96999V7.75999L14.48 10.24C14.49 10.16 14.5 10.08 14.5 9.99999Z" fill="black"/>
</svg>
