<svg width="26" height="21" viewBox="0 0 26 21" fill="none" xmlns="http://www.w3.org/2000/svg">
<path d="M9.66171 2.38948L5.80017 6.25016H1.37048C0.794957 6.25016 0.328812 6.7163 0.328812 7.29182V13.5418C0.328812 14.1169 0.794957 14.5835 1.37048 14.5835H5.80017L9.66171 18.4442C10.3141 19.0965 11.4399 18.6382 11.4399 17.7076V3.12602C11.4399 2.1946 10.3132 1.738 9.66171 2.38948ZM19.7884 0.172464C19.3036 -0.145678 18.6522 -0.0115633 18.334 0.474114C18.0154 0.958923 18.1509 1.6104 18.6357 1.92854C21.512 3.81613 23.2285 6.9893 23.2285 10.4173C23.2285 13.8452 21.512 17.0184 18.6357 18.906C18.1509 19.2237 18.0154 19.8756 18.334 20.36C18.6396 20.8248 19.2858 20.9919 19.7884 20.6616C23.2572 18.3847 25.3288 14.5544 25.3288 10.4168C25.3288 6.27924 23.2572 2.44937 19.7884 0.172464ZM21.1621 10.4168C21.1621 7.65944 19.7707 5.12429 17.4395 3.63557C16.9538 3.32568 16.3097 3.46977 16.002 3.95936C15.6943 4.44894 15.8379 5.09694 16.3236 5.40727C18.0489 6.50927 19.0788 8.38167 19.0788 10.4168C19.0788 12.452 18.0489 14.3244 16.3236 15.4264C15.8379 15.7363 15.6943 16.3843 16.002 16.8743C16.2845 17.3239 16.9187 17.5314 17.4395 17.1981C19.7707 15.7094 21.1621 13.1746 21.1621 10.4168ZM15.0089 7.08045C14.5063 6.80571 13.8722 6.9867 13.5936 7.49061C13.3162 7.99451 13.4998 8.62776 14.0037 8.90597C14.5641 9.2137 14.9121 9.79312 14.9121 10.4168C14.9121 11.041 14.5641 11.6199 14.0042 11.9277C13.5003 12.2059 13.3167 12.8391 13.594 13.343C13.8731 13.8491 14.5076 14.0288 15.0094 13.7532C16.2346 13.0783 16.9959 11.8001 16.9959 10.4164C16.9959 9.03271 16.2346 7.75493 15.0089 7.08045Z" fill="black"/>
</svg>
