<svg width="26" height="19" viewBox="0 0 26 19" fill="none" xmlns="http://www.w3.org/2000/svg">
<path d="M10.8283 0.386066L6.48408 4.72933H1.50069C0.853226 4.72933 0.328812 5.25374 0.328812 5.9012V12.9325C0.328812 13.5794 0.853226 14.1043 1.50069 14.1043H6.48408L10.8283 18.4476C11.5622 19.1815 12.8288 18.6659 12.8288 17.619V1.21468C12.8288 0.166827 11.5612 -0.346844 10.8283 0.386066ZM22.8698 9.41683L25.0983 7.18831C25.406 6.88069 25.406 6.38167 25.0983 6.07405L23.9841 4.9598C23.6765 4.65218 23.1774 4.65218 22.8698 4.9598L20.6413 7.18831L18.4128 4.9598C18.1052 4.65218 17.6062 4.65218 17.2985 4.9598L16.1843 6.07405C15.8767 6.38167 15.8767 6.88069 16.1843 7.18831L18.4128 9.41683L16.1848 11.6449C15.8772 11.9525 15.8772 12.4515 16.1848 12.7591L17.299 13.8734C17.6066 14.181 18.1057 14.181 18.4133 13.8734L20.6413 11.6453L22.8698 13.8739C23.1774 14.1815 23.6765 14.1815 23.9841 13.8739L25.0983 12.7596C25.406 12.452 25.406 11.953 25.0983 11.6453L22.8698 9.41683Z" fill="black"/>
</svg>
